<?xml version="1.0" encoding="UTF-8" standalone="no"?>
<!DOCTYPE svg PUBLIC "-//W3C//DTD SVG 1.1//EN" "http://www.w3.org/Graphics/SVG/1.1/DTD/svg11.dtd">
<svg width="100%" height="100%" viewBox="0 0 300 300" version="1.1" xmlns="http://www.w3.org/2000/svg" xmlns:xlink="http://www.w3.org/1999/xlink" xml:space="preserve" xmlns:serif="http://www.serif.com/" style="fill-rule:evenodd;clip-rule:evenodd;stroke-linejoin:round;stroke-miterlimit:2;">
    <g transform="matrix(1.79825,0,0,1.75837,-10.5922,-12.0588)">
        <g transform="matrix(2.50717,0,0,2.50717,-504.915,7.19129)">
            <path d="M231.09,58.637C230.909,58.637 230.724,58.614 230.54,58.564C224.08,56.834 218.685,52.7 215.35,46.923C212.014,41.146 211.131,34.407 212.863,27.949C213.167,26.816 214.329,26.143 215.466,26.446C216.599,26.751 217.272,27.916 216.968,29.049C215.531,34.411 216.263,40.004 219.031,44.798C221.797,49.591 226.276,53.022 231.639,54.459C232.773,54.763 233.446,55.928 233.142,57.062C232.887,58.011 232.029,58.637 231.09,58.637Z" style="fill:rgb(48,26,211);fill-rule:nonzero;"/>
        </g>
        <g transform="matrix(2.50717,0,0,2.50717,-504.915,7.19129)">
            <path d="M233.069,51.252C232.887,51.252 232.702,51.229 232.518,51.179C228.035,49.977 224.291,47.107 221.976,43.099C219.66,39.088 219.046,34.411 220.249,29.928C220.553,28.796 221.715,28.121 222.852,28.427C223.986,28.731 224.658,29.896 224.354,31.03C223.446,34.415 223.908,37.946 225.656,40.974C227.404,44 230.231,46.166 233.618,47.074C234.751,47.378 235.424,48.543 235.121,49.677C234.866,50.626 234.007,51.252 233.069,51.252Z" style="fill:rgb(48,26,211);fill-rule:nonzero;"/>
        </g>
        <g transform="matrix(2.50717,0,0,2.50717,-504.915,7.19129)">
            <path d="M229.111,66.023C228.929,66.023 228.745,66 228.56,65.951C220.125,63.692 213.082,58.293 208.726,50.749C204.371,43.207 203.217,34.407 205.477,25.97C205.782,24.837 206.943,24.164 208.08,24.467C209.213,24.771 209.886,25.936 209.583,27.07C207.616,34.41 208.619,42.065 212.406,48.624C216.195,55.185 222.322,59.88 229.66,61.845C230.793,62.149 231.466,63.314 231.163,64.448C230.909,65.397 230.049,66.023 229.111,66.023Z" style="fill:rgb(48,26,211);fill-rule:nonzero;"/>
        </g>
        <g transform="matrix(2.50717,0,0,2.50717,-504.915,7.19129)">
            <path d="M242.926,58.636C241.988,58.636 241.128,58.01 240.875,57.061C240.571,55.927 241.244,54.762 242.377,54.458C247.74,53.022 252.216,49.592 254.985,44.798C257.751,40.005 258.484,34.412 257.048,29.049C256.745,27.915 257.417,26.75 258.551,26.446C259.691,26.143 260.851,26.816 261.153,27.949C262.883,34.409 262,41.147 258.665,46.923C255.33,52.7 249.936,56.834 243.477,58.564C243.292,58.613 243.108,58.636 242.926,58.636Z" style="fill:rgb(48,26,211);fill-rule:nonzero;"/>
        </g>
        <g transform="matrix(2.50717,0,0,2.50717,-504.915,7.19129)">
            <path d="M240.948,51.251C240.009,51.251 239.151,50.625 238.896,49.675C238.592,48.542 239.265,47.376 240.399,47.073C243.785,46.166 246.611,44 248.358,40.973C250.106,37.946 250.569,34.415 249.662,31.028C249.358,29.895 250.031,28.729 251.165,28.425C252.298,28.124 253.463,28.795 253.767,29.928C254.968,34.412 254.355,39.089 252.039,43.098C249.724,47.107 245.981,49.977 241.499,51.178C241.315,51.228 241.129,51.251 240.948,51.251Z" style="fill:rgb(48,26,211);fill-rule:nonzero;"/>
        </g>
        <g transform="matrix(2.50717,0,0,2.50717,-504.915,7.19129)">
            <path d="M244.906,66.023C243.967,66.023 243.109,65.397 242.854,64.448C242.55,63.314 243.223,62.149 244.357,61.845C251.694,59.879 257.821,55.183 261.611,48.622C265.398,42.061 266.4,34.407 264.432,27.07C264.128,25.937 264.801,24.772 265.934,24.468C267.074,24.161 268.234,24.837 268.538,25.97C270.799,34.403 269.646,43.202 265.292,50.748C260.933,58.292 253.89,63.69 245.457,65.951C245.273,66 245.087,66.023 244.906,66.023Z" style="fill:rgb(48,26,211);fill-rule:nonzero;"/>
        </g>
        <g transform="matrix(2.50717,0,0,2.50717,-504.915,7.19129)">
            <path d="M237.007,42.002C232.821,42.002 229.425,38.607 229.425,34.419C229.425,30.231 232.821,26.836 237.007,26.836C241.196,26.836 244.591,30.231 244.591,34.419C244.591,38.607 241.196,42.002 237.007,42.002Z" style="fill:rgb(48,26,211);fill-rule:nonzero;"/>
        </g>
    </g>
</svg>
